<?xml version="1.0" encoding="UTF-8"?>
<svg version="1.1" xmlns="http://www.w3.org/2000/svg" width="283" height="148">
<path d="M0 0 C93.39 0 186.78 0 283 0 C283 48.84 283 97.68 283 148 C189.61 148 96.22 148 0 148 C0 99.16 0 50.32 0 0 Z " fill="#FCFCFC" transform="translate(0,0)"/>
<path d="M0 0 C93.39 0 186.78 0 283 0 C283 16.17 283 32.34 283 49 C189.61 49 96.22 49 0 49 C0 32.83 0 16.66 0 0 Z " fill="#FAFBFC" transform="translate(0,99)"/>
<path d="M0 0 C7.79391939 4.8335532 15.99526332 8.32390262 24.61450195 11.41381836 C21.84878664 14.38440148 19.11728799 16.38650107 15.61450195 18.41381836 C24.30065161 12.84446358 31.15866918 11.77490454 41.23168945 11.55834961 C46.79365378 11.43838567 52.16952075 10.51349103 57.61450195 9.41381836 C57.95481445 10.1756543 58.29512695 10.93749023 58.64575195 11.72241211 C64.51009581 24.21533613 70.76537462 31.08380999 83.61450195 36.41381836 C92.3182612 39.31507144 104.36113551 38.23749337 112.61450195 34.41381836 C123.45601059 28.65202321 129.13242945 20.64998168 133.61450195 9.41381836 C134.19973633 9.5465918 134.7849707 9.67936523 135.38793945 9.81616211 C139.89335413 10.74295161 144.2568343 11.46143935 148.8605957 11.52319336 C159.85612815 11.68719936 167.16751998 13.59678605 176.61450195 19.41381836 C174.7758669 18.29750422 172.94370472 17.17052209 171.11450195 16.03881836 C170.09356445 15.41233398 169.07262695 14.78584961 168.02075195 14.14038086 C166.8296582 13.28573242 166.8296582 13.28573242 165.61450195 12.41381836 C165.61450195 11.75381836 165.61450195 11.09381836 165.61450195 10.41381836 C166.40211914 10.2062793 167.18973633 9.99874023 168.0012207 9.78491211 C178.63475567 6.77732056 187.59965166 1.93447779 196.92700195 -3.89868164 C203.97024221 -8.15184604 211.39357412 -9.78894182 219.61450195 -8.58618164 C226.68355156 -6.18867282 229.69531952 -3.48920056 234.61450195 2.41381836 C234.61450195 15.94381836 234.61450195 29.47381836 234.61450195 43.41381836 C141.22450195 43.41381836 47.83450195 43.41381836 -48.38549805 43.41381836 C-48.38549805 7.41381836 -48.38549805 7.41381836 -44.38549805 3.41381836 C-43.23042458 2.06752468 -42.08439183 0.71341621 -40.94799805 -0.64868164 C-29.06242146 -14.31201541 -13.23449684 -8.22864254 0 0 Z " fill="#FCFCFC" transform="translate(48.385498046875,55.586181640625)"/>
<path d="M0 0 C3.70706942 2.53053497 6.18353784 5.46473194 8.203125 9.50390625 C8.96637518 16.34813328 8.39425423 20.98926253 4.203125 26.50390625 C-1.94599433 31.37195905 -6.25165742 31.62965988 -13.796875 31.50390625 C-13.796875 34.80390625 -13.796875 38.10390625 -13.796875 41.50390625 C-12.270625 41.35953125 -10.744375 41.21515625 -9.171875 41.06640625 C-3.89772946 41.01883019 -0.20931219 42.50278233 4.328125 45.00390625 C11.74670619 48.99303097 15.6807834 49.82703676 23.78125 47.45703125 C32.53901717 44.55570487 40.24162046 40.40749909 47.99609375 35.45703125 C53.43996413 32.14164125 57.65845191 31.11701257 64.015625 31.12890625 C65.07813477 31.12697266 65.07813477 31.12697266 66.16210938 31.125 C71.88819835 31.24089141 75.48856751 32.36086792 80.203125 35.50390625 C79.543125 35.83390625 78.883125 36.16390625 78.203125 36.50390625 C76.718125 35.79234375 76.718125 35.79234375 75.203125 35.06640625 C68.39431446 32.00737543 60.95042726 32.9839595 54.01953125 35.26171875 C49.7872943 37.12836418 45.95355877 39.56833111 42.03491211 42.01318359 C25.67127101 52.11776814 25.67127101 52.11776814 17.203125 51.50390625 C20.16040175 54.79915748 22.89583242 56.51506657 26.953125 58.25390625 C27.93796875 58.681875 28.9228125 59.10984375 29.9375 59.55078125 C30.68515625 59.8653125 31.4328125 60.17984375 32.203125 60.50390625 C30.5859375 61.21484375 30.5859375 61.21484375 28.203125 61.50390625 C25.3828125 60.10546875 25.3828125 60.10546875 22.078125 58.12890625 C15.5941561 54.53799893 10.0400183 53.83307658 2.70703125 53.7175293 C-3.47626699 53.61389486 -8.93804664 52.55578667 -14.796875 50.50390625 C-14.94382813 51.06078125 -15.09078125 51.61765625 -15.2421875 52.19140625 C-18.01921196 61.63967336 -23.69526023 68.88412417 -31.796875 74.50390625 C-42.26289831 79.70539374 -53.71297002 81.42641266 -65.1640625 78.703125 C-75.72148042 74.71324368 -83.15425264 67.54437334 -88.73828125 57.86328125 C-89.83962697 55.40862142 -90.37861748 53.15443705 -90.796875 50.50390625 C-91.45429687 50.70886719 -92.11171875 50.91382813 -92.7890625 51.125 C-99.21662102 52.94527064 -105.04513767 53.6491218 -111.671875 53.75390625 C-119.73357744 53.9282547 -125.17809296 56.02425278 -132.07421875 60.10546875 C-133.42193359 60.79769531 -133.42193359 60.79769531 -134.796875 61.50390625 C-135.786875 61.17390625 -136.776875 60.84390625 -137.796875 60.50390625 C-133.506875 58.19390625 -129.216875 55.88390625 -124.796875 53.50390625 C-126.50875 52.82328125 -128.220625 52.14265625 -129.984375 51.44140625 C-138.78260089 47.77288803 -147.04249788 43.25636738 -155.109375 38.19140625 C-163.83714227 32.91251476 -172.93160782 32.4802617 -182.796875 34.50390625 C-181.796875 32.50390625 -181.796875 32.50390625 -178.796875 31.50390625 C-163.85218869 30.20758897 -154.42126787 34.74913836 -141.96484375 42.63671875 C-137.41861049 45.31624957 -132.87562461 47.11172221 -127.796875 48.50390625 C-126.64251953 48.83455078 -126.64251953 48.83455078 -125.46484375 49.171875 C-120.55086835 50.17876663 -117.93382165 49.32057092 -113.671875 46.69140625 C-112.41503906 45.85802734 -112.41503906 45.85802734 -111.1328125 45.0078125 C-104.98317364 41.04859685 -98.84179518 41.31089474 -91.796875 41.50390625 C-91.796875 38.20390625 -91.796875 34.90390625 -91.796875 31.50390625 C-93.281875 31.58640625 -94.766875 31.66890625 -96.296875 31.75390625 C-101.61778067 31.73883286 -105.52060514 30.72345354 -109.796875 27.50390625 C-114.24831761 22.02520765 -115.49773396 17.51249586 -114.796875 10.50390625 C-112.39031256 4.95429027 -109.18451942 1.36967456 -103.796875 -1.49609375 C-97.27391188 -3.5984174 -89.10786055 -3.89722696 -82.796875 -1.2265625 C-80.37538191 0.25443997 -78.0959487 1.842029 -75.796875 3.50390625 C-73.95483629 4.78919809 -73.95483629 4.78919809 -71.796875 5.50390625 C-69.71297224 4.8869649 -69.71297224 4.8869649 -67.671875 3.66015625 C-62.60860562 1.19895984 -58.36362114 0.90113555 -52.796875 1.00390625 C-51.95898438 0.9884375 -51.12109375 0.97296875 -50.2578125 0.95703125 C-44.64367166 0.99179373 -40.71401796 2.10181078 -35.8046875 4.84179688 C-33.77259672 5.74094564 -33.77259672 5.74094564 -31.68359375 4.74023438 C-29.66448619 3.46976319 -29.66448619 3.46976319 -27.484375 1.56640625 C-18.65314865 -5.21104653 -9.6328292 -5.31623121 0 0 Z " fill="#FBFBFB" transform="translate(196.796875,14.49609375)"/>
<path d="M0 0 C3.70706942 2.53053497 6.18353784 5.46473194 8.203125 9.50390625 C8.96637518 16.34813328 8.39425423 20.98926253 4.203125 26.50390625 C-1.94599433 31.37195905 -6.25165742 31.62965988 -13.796875 31.50390625 C-13.796875 34.80390625 -13.796875 38.10390625 -13.796875 41.50390625 C-12.270625 41.35953125 -10.744375 41.21515625 -9.171875 41.06640625 C-3.89772946 41.01883019 -0.20931219 42.50278233 4.328125 45.00390625 C11.74670619 48.99303097 15.6807834 49.82703676 23.78125 47.45703125 C32.53901717 44.55570487 40.24162046 40.40749909 47.99609375 35.45703125 C53.43996413 32.14164125 57.65845191 31.11701257 64.015625 31.12890625 C65.07813477 31.12697266 65.07813477 31.12697266 66.16210938 31.125 C71.88819835 31.24089141 75.48856751 32.36086792 80.203125 35.50390625 C79.543125 35.83390625 78.883125 36.16390625 78.203125 36.50390625 C76.718125 35.79234375 76.718125 35.79234375 75.203125 35.06640625 C68.39431446 32.00737543 60.95042726 32.9839595 54.01953125 35.26171875 C49.7872943 37.12836418 45.95355877 39.56833111 42.03491211 42.01318359 C25.67127101 52.11776814 25.67127101 52.11776814 17.203125 51.50390625 C20.16040175 54.79915748 22.89583242 56.51506657 26.953125 58.25390625 C27.93796875 58.681875 28.9228125 59.10984375 29.9375 59.55078125 C30.68515625 59.8653125 31.4328125 60.17984375 32.203125 60.50390625 C30.5859375 61.21484375 30.5859375 61.21484375 28.203125 61.50390625 C25.3828125 60.10546875 25.3828125 60.10546875 22.078125 58.12890625 C15.5941561 54.53799893 10.0400183 53.83307658 2.70703125 53.7175293 C-3.47626699 53.61389486 -8.93804664 52.55578667 -14.796875 50.50390625 C-14.94382813 51.06078125 -15.09078125 51.61765625 -15.2421875 52.19140625 C-18.01921196 61.63967336 -23.69526023 68.88412417 -31.796875 74.50390625 C-42.26289831 79.70539374 -53.71297002 81.42641266 -65.1640625 78.703125 C-75.72148042 74.71324368 -83.15425264 67.54437334 -88.73828125 57.86328125 C-89.83962697 55.40862142 -90.37861748 53.15443705 -90.796875 50.50390625 C-91.45429687 50.70886719 -92.11171875 50.91382813 -92.7890625 51.125 C-99.21662102 52.94527064 -105.04513767 53.6491218 -111.671875 53.75390625 C-119.73357744 53.9282547 -125.17809296 56.02425278 -132.07421875 60.10546875 C-133.42193359 60.79769531 -133.42193359 60.79769531 -134.796875 61.50390625 C-135.786875 61.17390625 -136.776875 60.84390625 -137.796875 60.50390625 C-133.506875 58.19390625 -129.216875 55.88390625 -124.796875 53.50390625 C-126.50875 52.82328125 -128.220625 52.14265625 -129.984375 51.44140625 C-138.78260089 47.77288803 -147.04249788 43.25636738 -155.109375 38.19140625 C-163.83714227 32.91251476 -172.93160782 32.4802617 -182.796875 34.50390625 C-181.796875 32.50390625 -181.796875 32.50390625 -178.796875 31.50390625 C-163.85218869 30.20758897 -154.42126787 34.74913836 -141.96484375 42.63671875 C-137.41861049 45.31624957 -132.87562461 47.11172221 -127.796875 48.50390625 C-126.64251953 48.83455078 -126.64251953 48.83455078 -125.46484375 49.171875 C-120.55086835 50.17876663 -117.93382165 49.32057092 -113.671875 46.69140625 C-112.41503906 45.85802734 -112.41503906 45.85802734 -111.1328125 45.0078125 C-104.98317364 41.04859685 -98.84179518 41.31089474 -91.796875 41.50390625 C-91.796875 38.20390625 -91.796875 34.90390625 -91.796875 31.50390625 C-93.281875 31.58640625 -94.766875 31.66890625 -96.296875 31.75390625 C-101.61778067 31.73883286 -105.52060514 30.72345354 -109.796875 27.50390625 C-114.24831761 22.02520765 -115.49773396 17.51249586 -114.796875 10.50390625 C-112.39031256 4.95429027 -109.18451942 1.36967456 -103.796875 -1.49609375 C-97.27391188 -3.5984174 -89.10786055 -3.89722696 -82.796875 -1.2265625 C-80.37538191 0.25443997 -78.0959487 1.842029 -75.796875 3.50390625 C-73.95483629 4.78919809 -73.95483629 4.78919809 -71.796875 5.50390625 C-69.71297224 4.8869649 -69.71297224 4.8869649 -67.671875 3.66015625 C-62.60860562 1.19895984 -58.36362114 0.90113555 -52.796875 1.00390625 C-51.95898438 0.9884375 -51.12109375 0.97296875 -50.2578125 0.95703125 C-44.64367166 0.99179373 -40.71401796 2.10181078 -35.8046875 4.84179688 C-33.77259672 5.74094564 -33.77259672 5.74094564 -31.68359375 4.74023438 C-29.66448619 3.46976319 -29.66448619 3.46976319 -27.484375 1.56640625 C-18.65314865 -5.21104653 -9.6328292 -5.31623121 0 0 Z M-80.796875 14.50390625 C-88.91276701 25.15988659 -91.28831066 35.32853921 -89.796875 48.50390625 C-87.15340678 59.06597794 -80.76893033 67.064628 -71.9375 73.25 C-63.61828271 78.12311816 -54.22084279 78.53358015 -44.796875 77.50390625 C-34.85009778 74.89244199 -26.52155107 69.09092036 -20.796875 60.50390625 C-15.69174194 50.51321574 -13.95542391 39.70169152 -16.4453125 28.6171875 C-20.38788146 17.88463868 -27.61728371 10.55175303 -37.796875 5.50390625 C-53.01815484 0.15588901 -69.31785713 2.93985862 -80.796875 14.50390625 Z " fill="#313131" transform="translate(196.796875,14.49609375)"/>
<path d="M0 0 C3.34236157 1.41694436 5.98867821 3.30419276 8.6875 5.75 C8.11750717 9.4968646 6.57287709 11.16226176 3.9375 13.8125 C-0.51230635 18.6144493 -2.95679726 23.69086074 -5.3125 29.75 C-11.36090703 30.12031063 -15.9144202 29.86427681 -21.3125 26.75 C-25.13545708 23.03598729 -27.4542696 19.80392408 -27.5625 14.4375 C-27.58828125 13.67824219 -27.6140625 12.91898438 -27.640625 12.13671875 C-27.08307831 8.08123032 -25.27427296 5.56353639 -22.18359375 2.94921875 C-14.62878801 -1.74373442 -8.50964902 -2.8578371 0 0 Z " fill="#FAFAFA" transform="translate(111.3125,15.25)"/>
<path d="M0 0 C3.70651276 2.62989819 6.34191606 5.00238385 7.203125 9.61328125 C7.48646844 15.63661438 6.38606027 19.45019636 2.76171875 24.25 C-2.76751204 28.39692309 -7.57057397 28.36112845 -14.23828125 28.25 C-14.85703125 26.87328125 -14.85703125 26.87328125 -15.48828125 25.46875 C-19.06164014 17.78628999 -22.62004145 11.78525511 -29.23828125 6.25 C-22.39181836 -3.37783844 -10.47525338 -6.1194178 0 0 Z " fill="#FAFAFA" transform="translate(196.23828125,16.75)"/>
<path d="M0 0 C1.06250977 -0.00193359 1.06250977 -0.00193359 2.14648438 -0.00390625 C7.87257335 0.11198516 11.47294251 1.23196167 16.1875 4.375 C15.5275 4.705 14.8675 5.035 14.1875 5.375 C13.1975 4.900625 12.2075 4.42625 11.1875 3.9375 C4.37868946 0.87846918 -3.06519774 1.85505325 -9.99609375 4.1328125 C-14.2283307 5.99945793 -18.06206623 8.43942486 -21.98071289 10.88427734 C-38.34435399 20.98886189 -38.34435399 20.98886189 -46.8125 20.375 C-43.85522325 23.67025123 -41.11979258 25.38616032 -37.0625 27.125 C-36.07765625 27.55296875 -35.0928125 27.9809375 -34.078125 28.421875 C-33.33046875 28.73640625 -32.5828125 29.0509375 -31.8125 29.375 C-33.4296875 30.0859375 -33.4296875 30.0859375 -35.8125 30.375 C-38.6328125 28.9765625 -38.6328125 28.9765625 -41.9375 27 C-48.4214689 23.40909268 -53.9756067 22.70417033 -61.30859375 22.58862305 C-67.49189199 22.48498861 -72.95367164 21.42688042 -78.8125 19.375 C-78.95945312 19.931875 -79.10640625 20.48875 -79.2578125 21.0625 C-82.03483696 30.51076711 -87.71088523 37.75521792 -95.8125 43.375 C-106.27852331 48.57648749 -117.72859502 50.29750641 -129.1796875 47.57421875 C-139.73710542 43.58433743 -147.16987764 36.41546709 -152.75390625 26.734375 C-153.87606849 24.23331968 -154.55129429 22.10620358 -154.8125 19.375 C-154.1525 18.715 -153.4925 18.055 -152.8125 17.375 C-152.53277344 18.1484375 -152.25304687 18.921875 -151.96484375 19.71875 C-147.77743058 30.59794563 -142.20601207 37.84150146 -131.8125 43.375 C-122.59342961 46.87188877 -111.55509664 46.84957146 -102.375 43.3125 C-94.7311271 39.66522194 -87.69230397 34.0611268 -83.8125 26.375 C-82.59634615 22.75105769 -81.64215992 19.10509702 -80.8125 15.375 C-80.18085938 15.57996094 -79.54921875 15.78492188 -78.8984375 15.99609375 C-71.21782372 18.30913162 -63.8085422 19.03648143 -55.8125 19.375 C-55.8125 18.715 -55.8125 18.055 -55.8125 17.375 C-55.131875 17.44460937 -54.45125 17.51421875 -53.75 17.5859375 C-39.49261829 18.38222744 -27.68036768 11.77553202 -16.01953125 4.328125 C-10.57566087 1.012735 -6.35717309 -0.01189368 0 0 Z " fill="#363636" transform="translate(260.8125,45.625)"/>
<path d="M0 0 C4.38095584 2.40692831 8.57500896 5.08837466 12.796875 7.76171875 C17.34310826 10.44124957 21.88609414 12.23672221 26.96484375 13.62890625 C27.73441406 13.84933594 28.50398438 14.06976563 29.296875 14.296875 C34.2108504 15.30376663 36.8278971 14.44557092 41.08984375 11.81640625 C41.92773438 11.26082031 42.765625 10.70523438 43.62890625 10.1328125 C49.71937826 6.21168922 55.98941476 6.37627502 62.96484375 6.62890625 C62.96484375 4.64890625 62.96484375 2.66890625 62.96484375 0.62890625 C63.29484375 0.62890625 63.62484375 0.62890625 63.96484375 0.62890625 C64.45984375 8.05390625 64.45984375 8.05390625 64.96484375 15.62890625 C57.3770774 17.6581926 50.82253256 18.7552258 43.02734375 18.87890625 C34.99496066 19.05350476 29.55866729 21.16402355 22.6875 25.23046875 C21.78902344 25.69195312 20.89054687 26.1534375 19.96484375 26.62890625 C18.97484375 26.29890625 17.98484375 25.96890625 16.96484375 25.62890625 C21.25484375 23.31890625 25.54484375 21.00890625 29.96484375 18.62890625 C28.25296875 17.94828125 26.54109375 17.26765625 24.77734375 16.56640625 C15.97911786 12.89788803 7.71922087 8.38136738 -0.34765625 3.31640625 C-9.07542352 -1.96248524 -18.16988907 -2.3947383 -28.03515625 -0.37109375 C-24.14934339 -8.14271947 -5.82979241 -2.74665387 0 0 Z " fill="#1C1C1C" transform="translate(42.03515625,49.37109375)"/>
<path d="M0 0 C1.46371439 1.03409174 2.92257078 2.07511671 4.375 3.125 C6.320758 4.49223551 6.320758 4.49223551 8.375 5.125 C10.28966835 4.47949453 10.28966835 4.47949453 12.1875 3.25 C18.59955176 0.04397412 25.39433028 0.79390104 32.375 1.125 C32.375 1.455 32.375 1.785 32.375 2.125 C31.70855469 2.15078125 31.04210937 2.1765625 30.35546875 2.203125 C19.01193002 2.90118892 8.83962543 6.29378191 0.375 14.125 C-5.27812755 21.32750325 -8.63733425 28.31001379 -9.25 37.5 C-9.32476562 38.55960938 -9.39953125 39.61921875 -9.4765625 40.7109375 C-9.52554688 41.50757813 -9.57453125 42.30421875 -9.625 43.125 C-9.955 43.125 -10.285 43.125 -10.625 43.125 C-10.955 39.165 -11.285 35.205 -11.625 31.125 C-13.11 31.2075 -14.595 31.29 -16.125 31.375 C-21.44590567 31.35992661 -25.34873014 30.34454729 -29.625 27.125 C-34.07644261 21.6463014 -35.32585896 17.13358961 -34.625 10.125 C-32.21843756 4.57538402 -29.01264442 0.99076831 -23.625 -1.875 C-15.8852335 -4.36949428 -6.96455288 -4.25957029 0 0 Z M-29.625 5.125 C-32.98524944 9.76961145 -33.51295455 13.54075248 -32.625 19.125 C-30.39086758 23.5105192 -27.69612515 26.37699052 -23.625 29.125 C-20.65714973 30.08518685 -17.98254549 30.2331992 -14.875 30.1875 C-13.67617187 30.17396484 -13.67617187 30.17396484 -12.453125 30.16015625 C-11.84984375 30.14855469 -11.2465625 30.13695313 -10.625 30.125 C-10.20089844 29.19558594 -9.77679688 28.26617187 -9.33984375 27.30859375 C-6.25348621 20.74387579 -3.61292627 15.18002741 2.1875 10.5546875 C3.60079487 9.1764498 3.60079487 9.1764498 3.30078125 7.11328125 C2.12841425 4.59541289 0.94238806 3.83717443 -1.4375 2.4375 C-2.12457031 2.02113281 -2.81164062 1.60476562 -3.51953125 1.17578125 C-12.68915042 -3.40052219 -21.99408273 -1.32977589 -29.625 5.125 Z " fill="#1E1E1E" transform="translate(116.625,14.875)"/>
<path d="M0 0 C2.9375 1.5625 2.9375 1.5625 5 4 C5.33 6.31 5.66 8.62 6 11 C0.06 11 -5.88 11 -12 11 C-9.92054996 15.32615949 -9.92054996 15.32615949 -7 19 C-3.85241245 19.9129124 -1.17618233 19.72886274 2 19 C4.5189267 17.68236671 4.5189267 17.68236671 6 16 C6 17.32 6 18.64 6 20 C2.88610696 21.81643761 0.59222291 22.2719038 -3 22.25 C-4.2684375 22.25773437 -4.2684375 22.25773437 -5.5625 22.265625 C-9.32010306 21.85614262 -11.35432488 20.78403407 -13.75 17.875 C-15.35587131 14.18149599 -15.84264129 10.92211218 -15 7 C-11.35965731 0.74400367 -7.06242961 -0.9470691 0 0 Z " fill="#1E1E1E" transform="translate(145,124)"/>
<path d="M0 0 C2.70703125 1.44140625 2.70703125 1.44140625 5 4 C5.7486218 7.07911727 5.79029105 10.09139397 5.8125 13.25 C5.83763672 14.09046875 5.86277344 14.9309375 5.88867188 15.796875 C5.94739935 17.86408228 5.97659774 19.93209111 6 22 C4.68 22 3.36 22 2 22 C2 21.34 2 20.68 2 20 C1.01 20.66 0.02 21.32 -1 22 C-3.15625 22.30078125 -3.15625 22.30078125 -5.5 22.3125 C-6.66015625 22.33763672 -6.66015625 22.33763672 -7.84375 22.36328125 C-10.50940503 21.91417633 -11.39867965 21.14535867 -13 19 C-13 15.58241074 -12.28411418 14.30133322 -9.9375 11.8125 C-6.28606515 9.55948701 -3.19373851 8.85296376 1 8 C0.34 6.35 -0.32 4.7 -1 3 C-6.36090593 2.46326107 -6.36090593 2.46326107 -11 4.5 C-11.495 5.2425 -11.495 5.2425 -12 6 C-11.67 4.35 -11.34 2.7 -11 1 C-7.35001694 -0.21666102 -3.78201543 -0.75501773 0 0 Z " fill="#151515" transform="translate(183,124)"/>
<path d="M0 0 C1.32 0 2.64 0 4 0 C4.33 4.29 4.66 8.58 5 13 C5.99 12.34 6.98 11.68 8 11 C11.97833499 11.14466673 14.25731996 11.39412944 17.375 13.9375 C20.41421441 17.79496445 20.31251075 21.3793025 20.5625 26.125 C20.60568359 26.87910156 20.64886719 27.63320312 20.69335938 28.41015625 C20.7994832 30.27321888 20.90025001 32.13658524 21 34 C19.02 34 17.04 34 15 34 C15.01160156 32.79601562 15.02320312 31.59203125 15.03515625 30.3515625 C15.04453434 28.77604321 15.05363452 27.20052225 15.0625 25.625 C15.07087891 24.8309375 15.07925781 24.036875 15.08789062 23.21875 C15.23040151 18.97607778 15.23040151 18.97607778 14 15 C11.03 15 8.06 15 5 15 C5 21.27 5 27.54 5 34 C3.02 34 1.04 34 -1 34 C-1.02465288 29.31860746 -1.04283739 24.63725241 -1.05493164 19.95581055 C-1.05997157 18.36205386 -1.0668035 16.76830181 -1.07543945 15.17456055 C-1.08751999 12.88849747 -1.09323155 10.60249533 -1.09765625 8.31640625 C-1.10281754 7.59973282 -1.10797882 6.88305939 -1.11329651 6.14466858 C-1.11349263 4.42936328 -1.06192007 2.71418734 -1 1 C-0.67 0.67 -0.34 0.34 0 0 Z " fill="#252525" transform="translate(104,112)"/>
<path d="M0 0 C0.95648438 -0.00257812 1.91296875 -0.00515625 2.8984375 -0.0078125 C5.30640854 0.10948122 7.32490068 0.43824049 9.625 1.125 C9.625 3.105 9.625 5.085 9.625 7.125 C8.944375 6.135 8.944375 6.135 8.25 5.125 C4.77861599 2.48013599 2.37393933 2.55793466 -1.8984375 2.734375 C-5.52009276 3.305614 -7.67380042 4.69392038 -10.375 7.125 C-13.29972439 11.79447378 -12.98520872 16.79885724 -12.375 22.125 C-11.1261041 25.87168771 -9.15819179 28.43131584 -6.1875 31.0625 C-2.19820941 32.56956533 1.41595143 32.84807344 5.625 32.125 C8.65190443 30.30909021 8.65190443 30.30909021 10.625 28.125 C10.625 30.105 10.625 32.085 10.625 34.125 C4.47395465 35.4994094 -2.54142253 36.58476081 -8.5703125 34.2890625 C-13.13301087 31.34602329 -15.85320271 27.30271266 -17.375 22.125 C-18.12552581 17.11891549 -17.9950935 13.38903674 -15.75 8.8125 C-11.05850741 3.50370575 -7.2894133 -0.01954266 0 0 Z " fill="#191919" transform="translate(87.375,110.875)"/>
<path d="M0 0 C1.06250977 -0.00193359 1.06250977 -0.00193359 2.14648438 -0.00390625 C7.87257335 0.11198516 11.47294251 1.23196167 16.1875 4.375 C15.5275 4.705 14.8675 5.035 14.1875 5.375 C13.1975 4.900625 12.2075 4.42625 11.1875 3.9375 C4.37868946 0.87846918 -3.06519774 1.85505325 -9.99609375 4.1328125 C-14.2283307 5.99945793 -18.06206623 8.43942486 -21.98071289 10.88427734 C-38.34435399 20.98886189 -38.34435399 20.98886189 -46.8125 20.375 C-43.85522325 23.67025123 -41.11979258 25.38616032 -37.0625 27.125 C-36.07765625 27.55296875 -35.0928125 27.9809375 -34.078125 28.421875 C-33.33046875 28.73640625 -32.5828125 29.0509375 -31.8125 29.375 C-33.4296875 30.0859375 -33.4296875 30.0859375 -35.8125 30.375 C-38.6328125 28.9765625 -38.6328125 28.9765625 -41.9375 27 C-50.25609991 22.36160654 -58.47088745 22.30086022 -67.8125 22.375 C-64.75003253 20.59090198 -62.59170727 20.14619979 -59.0625 20.25 C-58.26328125 20.26804687 -57.4640625 20.28609375 -56.640625 20.3046875 C-56.03734375 20.32789062 -55.4340625 20.35109375 -54.8125 20.375 C-55.1425 19.385 -55.4725 18.395 -55.8125 17.375 C-55.131875 17.44460937 -54.45125 17.51421875 -53.75 17.5859375 C-39.49261829 18.38222744 -27.68036768 11.77553202 -16.01953125 4.328125 C-10.57566087 1.012735 -6.35717309 -0.01189368 0 0 Z " fill="#2D2D2D" transform="translate(260.8125,45.625)"/>
<path d="M0 0 C2.3181362 1.89111111 3.66914015 3.33828031 5 6 C5.2322646 8.71262116 5.41936235 11.40773126 5.5625 14.125 C5.60568359 14.87910156 5.64886719 15.63320312 5.69335938 16.41015625 C5.7994832 18.27321888 5.90025001 20.13658524 6 22 C4.02 22 2.04 22 0 22 C0.02320313 20.79601562 0.04640625 19.59203125 0.0703125 18.3515625 C0.08906863 16.77604785 0.10726899 15.20052652 0.125 13.625 C0.14175781 12.8309375 0.15851563 12.036875 0.17578125 11.21875 C0.19335473 9.14507985 0.10335168 7.07116759 0 5 C-1.94967279 2.60435072 -1.94967279 2.60435072 -5.5625 2.8125 C-8.82963695 2.60712194 -8.82963695 2.60712194 -10 4 C-10.08631874 5.34267413 -10.10706473 6.68974322 -10.09765625 8.03515625 C-10.09443359 8.84404297 -10.09121094 9.65292969 -10.08789062 10.48632812 C-10.07951172 11.33646484 -10.07113281 12.18660156 -10.0625 13.0625 C-10.05798828 13.91650391 -10.05347656 14.77050781 -10.04882812 15.65039062 C-10.03700373 17.76695663 -10.01906769 19.88348685 -10 22 C-11.98 22 -13.96 22 -16 22 C-16 15.07 -16 8.14 -16 1 C-14.35 0.67 -12.7 0.34 -11 0 C-10.071875 -0.309375 -10.071875 -0.309375 -9.125 -0.625 C-5.85011418 -1.20292103 -3.22442965 -0.74852831 0 0 Z " fill="#393939" transform="translate(211,124)"/>
<path d="M0 0 C0.99386719 0.10183594 1.98773438 0.20367187 3.01171875 0.30859375 C3.77097656 0.39238281 4.53023437 0.47617187 5.3125 0.5625 C5.3125 2.2125 5.3125 3.8625 5.3125 5.5625 C4.6525 4.9025 3.9925 4.2425 3.3125 3.5625 C-1.66785282 2.29053939 -5.51784058 1.99855707 -10.1875 4.25 C-13.92286772 7.70521514 -14.5529186 9.21668599 -15.0625 14.3125 C-14.9497155 18.94534008 -13.33766811 22.7866752 -10.6875 26.5625 C-7.33552157 28.79715229 -6.10958754 28.83358649 -2.1875 28.8125 C-1.2284375 28.81765625 -0.269375 28.8228125 0.71875 28.828125 C3.54872897 28.74232609 3.54872897 28.74232609 6.3125 26.5625 C6.3125 27.8825 6.3125 29.2025 6.3125 30.5625 C1.89080905 32.77334548 -3.87444644 31.97286997 -8.6875 31.5625 C-13.15196153 29.60440284 -15.7480092 27.00572783 -17.9921875 22.62109375 C-19.81385918 17.22771747 -19.51056424 12.27194111 -17.0625 7.1875 C-11.99735741 1.58918451 -7.46165643 -0.79005774 0 0 Z " fill="#474747" transform="translate(149.6875,39.4375)"/>
<path d="M0 0 C0 2.97 0 5.94 0 9 C1.98 9 3.96 9 6 9 C6 9.66 6 10.32 6 11 C4.02 11 2.04 11 0 11 C0.33 16.61 0.66 22.22 1 28 C1.99 28.33 2.98 28.66 4 29 C4.33 28.01 4.66 27.02 5 26 C5.33 26.99 5.66 27.98 6 29 C4 31 4 31 1.5625 31.375 C-1 31 -1 31 -2.6484375 29.4921875 C-4.56000051 25.96739789 -4.32177028 22.64728092 -4.1875 18.75 C-4.17396484 18.00492188 -4.16042969 17.25984375 -4.14648438 16.4921875 C-4.11127204 14.66114584 -4.05746851 12.83047831 -4 11 C-4.66 11 -5.32 11 -6 11 C-6 10.34 -6 9.68 -6 9 C-5.34 9 -4.68 9 -4 9 C-4.33 6.36 -4.66 3.72 -5 1 C-3 0 -3 0 0 0 Z " fill="#353535" transform="translate(161,115)"/>
<path d="M0 0 C4.37826269 2.40544867 8.57021056 5.08315614 12.78515625 7.76171875 C19.01443742 11.41969958 25.75919286 13.84991696 32.96484375 14.62890625 C33.45984375 17.10390625 33.45984375 17.10390625 33.96484375 19.62890625 C31.6997941 20.82875422 29.42894487 22.01385394 27.15234375 23.19140625 C26.50974609 23.53365234 25.86714844 23.87589844 25.20507812 24.22851562 C23.4955798 25.10540855 21.73163081 25.87406242 19.96484375 26.62890625 C18.97484375 26.29890625 17.98484375 25.96890625 16.96484375 25.62890625 C21.25484375 23.31890625 25.54484375 21.00890625 29.96484375 18.62890625 C28.25296875 17.94828125 26.54109375 17.26765625 24.77734375 16.56640625 C15.97911786 12.89788803 7.71922087 8.38136738 -0.34765625 3.31640625 C-9.07542352 -1.96248524 -18.16988907 -2.3947383 -28.03515625 -0.37109375 C-24.14934339 -8.14271947 -5.82979241 -2.74665387 0 0 Z " fill="#434343" transform="translate(42.03515625,49.37109375)"/>
<path d="M0 0 C1.90688236 2.86032353 3.24542751 5.63670378 4.6875 8.75 C9.37705336 18.1178066 15.2155406 23.19318461 25 27 C28.34705035 27.78829875 31.4287551 28.11981448 34.86328125 28.09765625 C35.74951172 28.09443359 36.63574219 28.09121094 37.54882812 28.08789062 C38.46083984 28.07951172 39.37285156 28.07113281 40.3125 28.0625 C41.24384766 28.05798828 42.17519531 28.05347656 43.13476562 28.04882812 C45.42324373 28.03709234 47.71158808 28.02067363 50 28 C45.88269647 32.11730353 39.86204202 31.36622282 34.34912109 31.38061523 C23.70934502 31.14233981 15.79091234 26.79540095 8.19921875 19.47265625 C3.67858402 14.38995326 -0.15816636 8.8730527 -1 2 C-0.67 1.34 -0.34 0.68 0 0 Z " fill="#232323" transform="translate(107,63)"/>
<path d="M0 0 C0.66 0.99 1.32 1.98 2 3 C1.25105469 3.54914062 0.50210938 4.09828125 -0.26953125 4.6640625 C-3.06991121 7.05980959 -4.74593933 9.25977682 -6.6875 12.375 C-7.26886719 13.29023437 -7.85023437 14.20546875 -8.44921875 15.1484375 C-11.17440408 20.15948357 -12.24717809 24.70767137 -12.625 30.375 C-12.69976562 31.43460938 -12.77453125 32.49421875 -12.8515625 33.5859375 C-12.90054688 34.38257813 -12.94953125 35.17921875 -13 36 C-13.33 36 -13.66 36 -14 36 C-14.33 32.04 -14.66 28.08 -15 24 C-16.485 24.0825 -17.97 24.165 -19.5 24.25 C-24.79116802 24.2424948 -28.74151085 23.19641991 -33 20 C-35 17.25 -35 17.25 -36 15 C-35.34 14.67 -34.68 14.34 -34 14 C-32.948125 15.423125 -32.948125 15.423125 -31.875 16.875 C-27.56596895 21.99046982 -22.08609092 22.24588569 -15.7578125 22.8515625 C-15.17773438 22.90054688 -14.59765625 22.94953125 -14 23 C-13.88914062 22.27425781 -13.77828125 21.54851563 -13.6640625 20.80078125 C-11.73726476 12.67422844 -5.60432507 5.93594194 0 0 Z " fill="#303030" transform="translate(120,22)"/>
<path d="M0 0 C7.54728918 0.28696917 14.29073674 1.34165686 21 5 C21.33 5.66 21.66 6.32 22 7 C14.34393782 7.19355213 7.33741969 7.3479743 0 5 C0 3.35 0 1.7 0 0 Z " fill="#E5E5E5" transform="translate(183,58)"/>
<path d="M0 0 C0 1.32 0 2.64 0 4 C-7.56620927 7.3380335 -14.8682179 7.11842401 -23 7 C-16.3556468 1.58205778 -8.46563667 -0.63891598 0 0 Z " fill="#E8E8E8" transform="translate(105,58)"/>
<path d="M0 0 C0.95648438 -0.00257812 1.91296875 -0.00515625 2.8984375 -0.0078125 C5.30640854 0.10948122 7.32490068 0.43824049 9.625 1.125 C9.625 3.105 9.625 5.085 9.625 7.125 C8.944375 6.135 8.944375 6.135 8.25 5.125 C4.77861599 2.48013599 2.37393933 2.55793466 -1.8984375 2.734375 C-5.52009276 3.305614 -7.67380042 4.69392038 -10.375 7.125 C-12.13941145 10.03689581 -12.70235324 12.50167011 -13 15.875 C-13.11214844 17.07382813 -13.11214844 17.07382813 -13.2265625 18.296875 C-13.27554688 18.90015625 -13.32453125 19.5034375 -13.375 20.125 C-13.705 20.125 -14.035 20.125 -14.375 20.125 C-14.705 17.815 -15.035 15.505 -15.375 13.125 C-15.705 16.095 -16.035 19.065 -16.375 22.125 C-16.705 22.125 -17.035 22.125 -17.375 22.125 C-17.72573826 17.19517894 -17.96114972 13.31984365 -15.75 8.8125 C-11.05850741 3.50370575 -7.2894133 -0.01954266 0 0 Z " fill="#232323" transform="translate(87.375,110.875)"/>
<path d="M0 0 C2.50963523 2.50963523 3 3.40643594 3 7 C-1.62 7 -6.24 7 -11 7 C-10 2 -10 2 -8.3125 0.125 C-5.10170492 -1.43700842 -3.36486763 -1.07389392 0 0 Z " fill="#F3F3F3" transform="translate(145,126)"/>
<path d="M0 0 C0.99 0 1.98 0 3 0 C3.90833969 2.72501908 4.18359985 4.62233971 4.31640625 7.44921875 C4.35830078 8.29677734 4.40019531 9.14433594 4.44335938 10.01757812 C4.48267578 10.89865234 4.52199219 11.77972656 4.5625 12.6875 C4.60568359 13.58017578 4.64886719 14.47285156 4.69335938 15.39257812 C4.79935353 17.59490108 4.90142051 19.79733473 5 22 C3.02 22 1.04 22 -1 22 C-1.02887814 18.52085059 -1.04675687 15.04173169 -1.0625 11.5625 C-1.07087891 10.56927734 -1.07925781 9.57605469 -1.08789062 8.55273438 C-1.09111328 7.60849609 -1.09433594 6.66425781 -1.09765625 5.69140625 C-1.10289307 4.81685791 -1.10812988 3.94230957 -1.11352539 3.04125977 C-1 1 -1 1 0 0 Z " fill="#363636" transform="translate(196,124)"/>
<path d="M0 0 C4.60762943 1.45504087 4.60762943 1.45504087 6.125 3.5625 C7.38193953 7.0639744 7.46891503 10.56899607 7.625 14.25 C7.66367188 14.99507812 7.70234375 15.74015625 7.7421875 16.5078125 C7.83605108 18.3381524 7.91909718 20.16904143 8 22 C6.02 22 4.04 22 2 22 C2.03480469 20.81921875 2.06960937 19.6384375 2.10546875 18.421875 C2.13361232 16.86459758 2.16091187 15.30730475 2.1875 13.75 C2.21263672 12.97269531 2.23777344 12.19539062 2.26367188 11.39453125 C2.34061028 6.69859408 2.34061028 6.69859408 0.48828125 2.453125 C-0.00285156 1.97359375 -0.49398437 1.4940625 -1 1 C-0.67 0.67 -0.34 0.34 0 0 Z " fill="#0B0B0B" transform="translate(117,124)"/>
<path d="M0 0 C0.1953125 6.0546875 0.1953125 6.0546875 0 8 C-2 10 -2 10 -5.5625 10.1875 C-9 10 -9 10 -10 9 C-10.04063832 7.33382885 -10.042721 5.66611905 -10 4 C-3.375 0 -3.375 0 0 0 Z " fill="#F4F4F4" transform="translate(184,134)"/>
<path d="M0 0 C0 2.64 0 5.28 0 8 C-0.33 8 -0.66 8 -1 8 C-1 5.69 -1 3.38 -1 1 C-3.97 2.32 -6.94 3.64 -10 5 C-10 6.65 -10 8.3 -10 10 C-7.69 10.66 -5.38 11.32 -3 12 C-3 12.33 -3 12.66 -3 13 C-4.43655854 13.08131463 -5.8744483 13.13933559 -7.3125 13.1875 C-8.51326172 13.23970703 -8.51326172 13.23970703 -9.73828125 13.29296875 C-12 13 -12 13 -13.79296875 11.640625 C-15 10 -15 10 -15 7.5625 C-13.66536153 4.14248892 -12.06989826 2.97837888 -9 1 C-3.69026549 -1.2300885 -3.69026549 -1.2300885 0 0 Z " fill="#1E1E1E" transform="translate(185,133)"/>
<path d="M0 0 C0.33 0 0.66 0 1 0 C1 1.98 1 3.96 1 6 C1.64324219 5.93039063 2.28648437 5.86078125 2.94921875 5.7890625 C11.50628762 5.27637078 17.53877761 8.01435497 25 12 C24.01 12.66 23.02 13.32 22 14 C19.90625 13.390625 19.90625 13.390625 17.5 12.25 C12.09860799 9.89187015 6.81078567 8.8395812 1 8 C0.67 8.66 0.34 9.32 0 10 C0 6.7 0 3.4 0 0 Z " fill="#171717" transform="translate(182,50)"/>
<path d="M0 0 C0.33 0 0.66 0 1 0 C1.33 2.31 1.66 4.62 2 7 C2.66 6.67 3.32 6.34 4 6 C4.474375 6.99 4.94875 7.98 5.4375 9 C7.59692606 12.1257884 7.59692606 12.1257884 10.12890625 12.50390625 C13.86622378 12.59626171 16.30132787 12.40897881 19.5625 10.5 C20.036875 10.005 20.51125 9.51 21 9 C21 10.32 21 11.64 21 13 C17.88610696 14.81643761 15.59222291 15.2719038 12 15.25 C10.7315625 15.25773438 10.7315625 15.25773438 9.4375 15.265625 C5.67989694 14.85614262 3.64567512 13.78403407 1.25 10.875 C-0.42728337 7.01724826 -0.2127899 4.18486798 0 0 Z " fill="#242424" transform="translate(130,131)"/>
<path d="M0 0 C3.68739373 1.99173092 7.19823957 4.10465945 10.67578125 6.4453125 C10.34578125 7.1053125 10.01578125 7.7653125 9.67578125 8.4453125 C6.09908766 7.12390528 3.06142454 5.51196406 -0.13671875 3.4453125 C-9.11482553 -1.99998895 -18.12685436 -2.64645455 -28.32421875 -0.5546875 C-24.34874447 -8.50563605 -5.9220508 -2.80476019 0 0 Z " fill="#444444" transform="translate(42.32421875,49.5546875)"/>
<path d="M0 0 C0.53625 0.2475 1.0725 0.495 1.625 0.75 C-0.375 2.25 -0.375 2.25 -2.375 3.75 C-3.07625 4.306875 -3.7775 4.86375 -4.5 5.4375 C-6.375 6.75 -6.375 6.75 -8.375 6.75 C-10.22631483 10.67857754 -10.59504943 13.73775112 -10.5 18.0625 C-10.48195313 19.13113281 -10.46390625 20.19976562 -10.4453125 21.30078125 C-10.42210938 22.10902344 -10.39890625 22.91726562 -10.375 23.75 C-12.375 22.75 -12.375 22.75 -13 21.125 C-14.00589236 14.75434836 -13.50450521 10.84526395 -9.87109375 5.5546875 C-7.17308525 2.30017072 -4.40049053 -0.46320953 0 0 Z " fill="#333333" transform="translate(95.375,13.25)"/>
<path d="M0 0 C3 1 3 1 4 3 C4.07065617 5.04055005 4.08421976 7.08334257 4.0625 9.125 C4.05347656 10.22070312 4.04445313 11.31640625 4.03515625 12.4453125 C4.02355469 13.28835937 4.01195312 14.13140625 4 15 C0.60582235 11.87378374 -1.6062718 9.43458973 -3 5 C-1.68 4.67 -0.36 4.34 1 4 C0.67 2.68 0.34 1.36 0 0 Z " fill="#EBEBEB" transform="translate(279,43)"/>
<path d="M0 0 C0.33 0 0.66 0 1 0 C1.06058594 0.83144531 1.12117187 1.66289062 1.18359375 2.51953125 C1.26738281 3.60621094 1.35117188 4.69289062 1.4375 5.8125 C1.55931641 7.43091797 1.55931641 7.43091797 1.68359375 9.08203125 C1.90212461 12.05989905 1.90212461 12.05989905 3 15 C3.99 15.33 4.98 15.66 6 16 C6.33 15.01 6.66 14.02 7 13 C7.33 13.99 7.66 14.98 8 16 C6 18 6 18 3.5 18.25 C1 18 1 18 -1 16 C-1.23046875 12.8125 -1.23046875 12.8125 -1.1875 9 C-1.18105469 7.741875 -1.17460937 6.48375 -1.16796875 5.1875 C-1 2 -1 2 0 0 Z " fill="#141414" transform="translate(159,128)"/>
<path d="M0 0 C0.33 0 0.66 0 1 0 C1.33 4.95 1.66 9.9 2 15 C0 11 0 11 0 8 C-4.95 8.66 -9.9 9.32 -15 10 C-14.67 9.01 -14.34 8.02 -14 7 C-10.96826719 5.80506026 -7.97540573 5.89506045 -4.75 5.9375 C-3.85796875 5.94652344 -2.9659375 5.95554687 -2.046875 5.96484375 C-1.37140625 5.97644531 -0.6959375 5.98804688 0 6 C0 4.02 0 2.04 0 0 Z " fill="#141414" transform="translate(105,50)"/>
<path d="M0 0 C0.82177734 0.32484375 0.82177734 0.32484375 1.66015625 0.65625 C9.54878699 3.42689104 16.73323753 3.29760345 25 3 C25 3.66 25 4.32 25 5 C22.33383784 5.2242 19.66830733 5.42964971 17 5.625 C15.88431641 5.72167969 15.88431641 5.72167969 14.74609375 5.8203125 C9.39331828 6.19267949 5.14556096 5.53197383 0 4 C0 2.68 0 1.36 0 0 Z " fill="#171717" transform="translate(181,61)"/>
<path d="M0 0 C3.63 0.33 7.26 0.66 11 1 C9.4375 3.5625 9.4375 3.5625 7 6 C3.25 5.8125 3.25 5.8125 0 5 C0 3.35 0 1.7 0 0 Z " fill="#DEDEDE" transform="translate(183,58)"/>
<path d="M0 0 C0.70833984 -0.00128906 1.41667969 -0.00257812 2.14648438 -0.00390625 C7.87257335 0.11198516 11.47294251 1.23196167 16.1875 4.375 C15.1975 4.87 15.1975 4.87 14.1875 5.375 C13.1975 4.900625 12.2075 4.42625 11.1875 3.9375 C3.78929201 0.59142253 -4.25657389 2.33088472 -11.8125 4.375 C-12.1425 3.715 -12.4725 3.055 -12.8125 2.375 C-8.56927193 0.31518055 -4.64284389 -0.00868633 0 0 Z " fill="#525252" transform="translate(260.8125,45.625)"/>
<path d="M0 0 C0.33 0 0.66 0 1 0 C1.33 5.28 1.66 10.56 2 16 C0.02 16 -1.96 16 -4 16 C-3.67 11.05 -3.34 6.1 -3 1 C-2.67 1 -2.34 1 -2 1 C-2 4.63 -2 8.26 -2 12 C-1.34 12 -0.68 12 0 12 C0 8.04 0 4.08 0 0 Z " fill="#3C3C3C" transform="translate(123,130)"/>
<path d="M0 0 C0.99 0.66 1.98 1.32 3 2 C3 2.99 3 3.98 3 5 C0.56242587 5.02698422 -1.87484915 5.04683099 -4.3125 5.0625 C-5.00279297 5.07087891 -5.69308594 5.07925781 -6.40429688 5.08789062 C-9.5483025 5.10307906 -11.99420019 5.00193327 -15 4 C-14.67 3.01 -14.34 2.02 -14 1 C-14 1.66 -14 2.32 -14 3 C-9.38 3 -4.76 3 0 3 C0 2.01 0 1.02 0 0 Z " fill="#282828" transform="translate(148,130)"/>
<path d="M0 0 C0 1.65 0 3.3 0 5 C-0.66 4.34 -1.32 3.68 -2 3 C-4.2928856 2.46087589 -4.2928856 2.46087589 -6.875 2.25 C-7.73867187 2.15203125 -8.60234375 2.0540625 -9.4921875 1.953125 C-12.22283899 2.00416521 -13.68653065 2.60115807 -16 4 C-16.66 3.34 -17.32 2.68 -18 2 C-11.7629069 -1.46505172 -6.95253862 -1.04350941 0 0 Z " fill="#5D5D5D" transform="translate(155,40)"/>
<path d="M0 0 C0.66 0 1.32 0 2 0 C2.06058594 0.91523438 2.12117187 1.83046875 2.18359375 2.7734375 C2.26738281 3.96195313 2.35117188 5.15046875 2.4375 6.375 C2.51871094 7.55835938 2.59992188 8.74171875 2.68359375 9.9609375 C2.81084936 12.91518901 2.81084936 12.91518901 4 15 C2.02 15 0.04 15 -2 15 C-1.67 14.01 -1.34 13.02 -1 12 C-0.77674186 9.94106379 -0.59294241 7.87766347 -0.4375 5.8125 C-0.35371094 4.72582031 -0.26992187 3.63914063 -0.18359375 2.51953125 C-0.12300781 1.68808594 -0.06242188 0.85664063 0 0 Z " fill="#060606" transform="translate(213,131)"/>
<path d="M0 0 C4.34671293 1.41367259 8.6135639 2.97260641 12.875 4.625 C14.60363281 5.29402344 14.60363281 5.29402344 16.3671875 5.9765625 C17.23601562 6.31429687 18.10484375 6.65203125 19 7 C19 7.33 19 7.66 19 8 C11.58783319 7.64134677 6.43520528 5.64079463 0 2 C0 1.34 0 0.68 0 0 Z " fill="#202020" transform="translate(52,57)"/>
<path d="M0 0 C0.680625 0.763125 1.36125 1.52625 2.0625 2.3125 C7.71234259 7.48150492 13.62734823 8.51517709 21 9 C20.67 9.66 20.34 10.32 20 11 C5.78511739 9.3971349 5.78511739 9.3971349 1 5 C-0.375 2.75 -0.375 2.75 -1 1 C-0.67 0.67 -0.34 0.34 0 0 Z " fill="#595959" transform="translate(85,36)"/>
<path d="M0 0 C0 2.97 0 5.94 0 9 C-1.32 9 -2.64 9 -4 9 C-4.33 6.36 -4.66 3.72 -5 1 C-3 0 -3 0 0 0 Z " fill="#2A2A2A" transform="translate(161,115)"/>
<path d="M0 0 C2.49310643 3.73965964 2.0603261 5.29070641 1.625 9.6875 C1.51414063 10.86699219 1.40328125 12.04648438 1.2890625 13.26171875 C1.19367188 14.16535156 1.09828125 15.06898438 1 16 C0.34 15.67 -0.32 15.34 -1 15 C-1.02685412 12.68756208 -1.04632841 10.3750373 -1.0625 8.0625 C-1.07410156 6.77472656 -1.08570313 5.48695313 -1.09765625 4.16015625 C-1 1 -1 1 0 0 Z " fill="#000000" transform="translate(198,124)"/>
<path d="M0 0 C0.99 0.33 1.98 0.66 3 1 C-1.62 3.97 -6.24 6.94 -11 10 C-11.66 9.34 -12.32 8.68 -13 8 C-10.90320896 6.63304778 -8.7989062 5.28153009 -6.6875 3.9375 C-6.09259766 3.54755859 -5.49769531 3.15761719 -4.88476562 2.75585938 C-3.30390365 1.75788505 -1.65405288 0.87131304 0 0 Z " fill="#2D2D2D" transform="translate(246,49)"/>
<path d="M0 0 C4.28008379 3.8373165 6.86273219 7.52917945 7.1875 13.375 C7.125625 14.24125 7.06375 15.1075 7 16 C4.76595074 13.76595074 4.07899714 12.0503577 2.9375 9.125 C2.59589844 8.26132812 2.25429687 7.39765625 1.90234375 6.5078125 C1.12464017 4.34640255 0.50488838 2.23816498 0 0 Z " fill="#242424" transform="translate(175,32)"/>
<path d="M0 0 C0.66 0 1.32 0 2 0 C2.625 1.875 2.625 1.875 3 4 C1 6 1 6 -0.9453125 6.1953125 C-2.96354167 6.13020833 -4.98177083 6.06510417 -7 6 C-7.33 5.01 -7.66 4.02 -8 3 C-5.36 3 -2.72 3 0 3 C0 2.01 0 1.02 0 0 Z " fill="#F1F1F1" transform="translate(124,142)"/>
<path d="M0 0 C1.8272911 2.74093665 2.93698178 5.13825324 4.125 8.1875 C4.47820312 9.08855469 4.83140625 9.98960938 5.1953125 10.91796875 C5.46085937 11.60503906 5.72640625 12.29210937 6 13 C5.01 13 4.02 13 3 13 C2.29819469 11.5903653 1.61406042 10.17192359 0.9375 8.75 C0.55464844 7.96109375 0.17179687 7.1721875 -0.22265625 6.359375 C-1.08564091 3.74006478 -0.93045933 2.55144824 0 0 Z " fill="#383838" transform="translate(107,63)"/>
<path d="M0 0 C0.33 1.32 0.66 2.64 1 4 C-0.43146378 4.41713515 -1.87058886 4.8080497 -3.3125 5.1875 C-4.11300781 5.40792969 -4.91351563 5.62835938 -5.73828125 5.85546875 C-8 6 -8 6 -9.79296875 4.55078125 C-10.19128906 4.03902344 -10.58960937 3.52726562 -11 3 C-10.37351562 2.86722656 -9.74703125 2.73445313 -9.1015625 2.59765625 C-8.28429687 2.42105469 -7.46703125 2.24445312 -6.625 2.0625 C-5.81289062 1.88847656 -5.00078125 1.71445312 -4.1640625 1.53515625 C-1.970537 1.07669307 -1.970537 1.07669307 0 0 Z " fill="#313131" transform="translate(105,61)"/>
<path d="M0 0 C1.03159626 3.09478879 0.97482862 4.52631393 0.5625 7.6875 C0.46066406 8.49574219 0.35882813 9.30398437 0.25390625 10.13671875 C0.17011719 10.75160156 0.08632812 11.36648437 0 12 C-0.33 12 -0.66 12 -1 12 C-1.33 9.69 -1.66 7.38 -2 5 C-2.33 7.97 -2.66 10.94 -3 14 C-3.33 14 -3.66 14 -4 14 C-4.63019694 4.82713348 -4.63019694 4.82713348 -2 1.375 C-1.34 0.92125 -0.68 0.4675 0 0 Z " fill="#363636" transform="translate(74,119)"/>
<path d="M0 0 C0.90105469 0.00902344 1.80210937 0.01804687 2.73046875 0.02734375 C3.41753906 0.03894531 4.10460937 0.05054688 4.8125 0.0625 C4.4825 0.7225 4.1525 1.3825 3.8125 2.0625 C1.52734375 2.6953125 1.52734375 2.6953125 -1.25 3.1875 C-2.16910156 3.35507813 -3.08820313 3.52265625 -4.03515625 3.6953125 C-5.10056641 3.87707031 -5.10056641 3.87707031 -6.1875 4.0625 C-6.8475 3.0725 -7.5075 2.0825 -8.1875 1.0625 C-5.17259443 0.05753148 -3.14568308 -0.04085303 0 0 Z " fill="#454545" transform="translate(184.1875,10.9375)"/>
<path d="M0 0 C0 2.64 0 5.28 0 8 C-0.33 8 -0.66 8 -1 8 C-1 5.69 -1 3.38 -1 1 C-5.455 2.485 -5.455 2.485 -10 4 C-10.33 3.34 -10.66 2.68 -11 2 C-9.73392393 1.46770674 -8.46189588 0.94955456 -7.1875 0.4375 C-6.47980469 0.14746094 -5.77210938 -0.14257812 -5.04296875 -0.44140625 C-3 -1 -3 -1 0 0 Z " fill="#434343" transform="translate(185,133)"/>
<path d="M0 0 C0.33 0 0.66 0 1 0 C1 1.98 1 3.96 1 6 C-6.625 7.25 -6.625 7.25 -10 5 C-6.97265625 4.36523438 -6.97265625 4.36523438 -3.9453125 3.73046875 C-1.62953451 3.07691162 -1.62953451 3.07691162 0 0 Z " fill="#1E1E1E" transform="translate(97,139)"/>
<path d="M0 0 C-0.33 0.66 -0.66 1.32 -1 2 C-6.61 1.67 -12.22 1.34 -18 1 C-18 0.67 -18 0.34 -18 0 C-11.78675502 -0.73030908 -6.15901243 -1.23180249 0 0 Z " fill="#4D4D4D" transform="translate(156,17)"/>
<path d="M0 0 C-0.33 0.99 -0.66 1.98 -1 3 C-2.134375 3.12375 -3.26875 3.2475 -4.4375 3.375 C-6.2009375 3.684375 -6.2009375 3.684375 -8 4 C-8.33 4.66 -8.66 5.32 -9 6 C-8.6875 4.125 -8.6875 4.125 -8 2 C-4.77208445 -0.1519437 -3.71599191 -0.20086443 0 0 Z " fill="#3D3D3D" transform="translate(117,123)"/>
<path d="M0 0 C0 0.66 0 1.32 0 2 C0.66 2.33 1.32 2.66 2 3 C-2.455 4.485 -2.455 4.485 -7 6 C-7.33 5.01 -7.66 4.02 -8 3 C-2.25 0 -2.25 0 0 0 Z " fill="#313131" transform="translate(90,58)"/>
<path d="M0 0 C0.70189453 0.00451172 1.40378906 0.00902344 2.12695312 0.01367188 C3.85550538 0.02543073 5.58401365 0.04336546 7.3125 0.0625 C7.3125 0.3925 7.3125 0.7225 7.3125 1.0625 C6.57644531 1.12308594 5.84039062 1.18367188 5.08203125 1.24609375 C4.10621094 1.32988281 3.13039062 1.41367187 2.125 1.5 C1.16207031 1.58121094 0.19914063 1.66242187 -0.79296875 1.74609375 C-3.68239686 1.99977471 -3.68239686 1.99977471 -6.42578125 2.72265625 C-7.54533203 2.89087891 -7.54533203 2.89087891 -8.6875 3.0625 C-9.3475 2.4025 -10.0075 1.7425 -10.6875 1.0625 C-7.06882441 -0.1437252 -3.76243749 -0.04566918 0 0 Z " fill="#212121" transform="translate(141.6875,15.9375)"/>
<path d="M0 0 C1.28132812 0.10183594 2.56265625 0.20367187 3.8828125 0.30859375 C4.87023437 0.39238281 5.85765625 0.47617188 6.875 0.5625 C6.875 0.8925 6.875 1.2225 6.875 1.5625 C4.77222877 1.78447585 2.66767698 1.98963637 0.5625 2.1875 C-0.60925781 2.30351563 -1.78101563 2.41953125 -2.98828125 2.5390625 C-6.125 2.5625 -6.125 2.5625 -9.125 0.5625 C-6.07230154 -0.96384923 -3.36654311 -0.27544444 0 0 Z " fill="#434343" transform="translate(141.125,91.4375)"/>
<path d="M0 0 C0.66 0.66 1.32 1.32 2 2 C-0.64 4.31 -3.28 6.62 -6 9 C-6 6 -6 6 -4.6875 4.39453125 C-4.130625 3.87246094 -3.57375 3.35039063 -3 2.8125 C-2.443125 2.28269531 -1.88625 1.75289063 -1.3125 1.20703125 C-0.6628125 0.60955078 -0.6628125 0.60955078 0 0 Z " fill="#2B2B2B" transform="translate(173,78)"/>
<path d="M0 0 C4.55737263 0.43820891 7.57653445 0.85041169 11 4 C8 5 8 5 5.95703125 4.22265625 C5.24933594 3.83980469 4.54164063 3.45695312 3.8125 3.0625 C3.09707031 2.68222656 2.38164062 2.30195312 1.64453125 1.91015625 C1.10183594 1.60980469 0.55914062 1.30945312 0 1 C0 0.67 0 0.34 0 0 Z " fill="#1D1D1D" transform="translate(196,59)"/>
<path d="M0 0 C0.33 0.66 0.66 1.32 1 2 C0.67 2.99 0.34 3.98 0 5 C0.99 5.33 1.98 5.66 3 6 C2.01 6 1.02 6 0 6 C-0.33 7.32 -0.66 8.64 -1 10 C-2 9 -2 9 -2.09765625 7.15234375 C-2.06510417 5.1015625 -2.03255208 3.05078125 -2 1 C-1.34 0.67 -0.68 0.34 0 0 Z " fill="#060606" transform="translate(133,129)"/>
<path d="M0 0 C0.33 0 0.66 0 1 0 C1.33 3.3 1.66 6.6 2 10 C1.01 10.33 0.02 10.66 -1 11 C-1.02688151 9.35425434 -1.04634123 7.70838587 -1.0625 6.0625 C-1.07410156 5.14597656 -1.08570312 4.22945313 -1.09765625 3.28515625 C-1 1 -1 1 0 0 Z " fill="#060606" transform="translate(72,123)"/>
<path d="M0 0 C0.33 1.32 0.66 2.64 1 4 C-3.12168689 5.62950412 -5.70700357 6.26264601 -10 5 C-10 4.67 -10 4.34 -10 4 C-8.906875 3.896875 -7.81375 3.79375 -6.6875 3.6875 C-3.14440371 3.02692273 -2.06756277 2.7972908 0 0 Z " fill="#3F3F3F" transform="translate(150,140)"/>
<path d="M0 0 C0.66 0 1.32 0 2 0 C2 0.66 2 1.32 2 2 C3.32 2 4.64 2 6 2 C6 2.66 6 3.32 6 4 C3.36 4 0.72 4 -2 4 C-1.34 2.68 -0.68 1.36 0 0 Z " fill="#EEEEEE" transform="translate(183,144)"/>
<path d="M0 0 C0.33 1.32 0.66 2.64 1 4 C-4.41538462 5.23076923 -4.41538462 5.23076923 -7.375 4.0625 C-7.91125 3.711875 -8.4475 3.36125 -9 3 C-7.88625 2.87625 -6.7725 2.7525 -5.625 2.625 C-1.96896323 2.3534187 -1.96896323 2.3534187 0 0 Z " fill="#656565" transform="translate(155,66)"/>
<path d="M0 0 C2.64 0.33 5.28 0.66 8 1 C7.67 1.66 7.34 2.32 7 3 C4.36 3 1.72 3 -1 3 C-0.67 2.01 -0.34 1.02 0 0 Z " fill="#F5F5F5" transform="translate(193,145)"/>
<path d="M0 0 C0.99 0.33 1.98 0.66 3 1 C1.7260411 3.03833424 0.38938077 5.03852126 -1 7 C-1.66 7 -2.32 7 -3 7 C-2.25 2.25 -2.25 2.25 0 0 Z " fill="#414141" transform="translate(136,43)"/>
<path d="M0 0 C0.598125 0.20625 1.19625 0.4125 1.8125 0.625 C-0.80948774 2.77877564 -2.83154172 4.02572174 -6.1875 4.625 C-5.03076352 1.15479057 -3.91311293 -0.67081936 0 0 Z " fill="#232323" transform="translate(95.1875,13.375)"/>
<path d="M0 0 C0 0.33 0 0.66 0 1 C-1.3921875 1.1546875 -1.3921875 1.1546875 -2.8125 1.3125 C-6.03254358 2.0070192 -7.02579865 2.47740939 -9 5 C-8.67 3.35 -8.34 1.7 -8 0 C-4.71023192 -1.09658936 -3.28696233 -0.79953138 0 0 Z " fill="#444444" transform="translate(180,125)"/>
<path d="M0 0 C0.66 0 1.32 0 2 0 C2 2.64 2 5.28 2 8 C0.4375 6.8125 0.4375 6.8125 -1 5 C-0.6875 2.3125 -0.6875 2.3125 0 0 Z " fill="#E0E0E0" transform="translate(281,50)"/>
<path d="M0 0 C-2.39509338 2.89932357 -4.31245243 3.50168276 -8 4 C-7.67 3.01 -7.34 2.02 -7 1 C-4.53721199 -0.231394 -2.7204945 -0.07159196 0 0 Z " fill="#131313" transform="translate(179,13)"/>
<path d="M0 0 C3 3.875 3 3.875 3 5 C1.02 5 -0.96 5 -3 5 C-1.125 1.125 -1.125 1.125 0 0 Z " fill="#1A1A1A" transform="translate(214,141)"/>
<path d="M0 0 C6.625 -0.25 6.625 -0.25 10 2 C8.35 2 6.7 2 5 2 C4.67 2.66 4.34 3.32 4 4 C3.67 3.01 3.34 2.02 3 1 C2.01 0.67 1.02 0.34 0 0 Z " fill="#3F3F3F" transform="translate(209,64)"/>
</svg>
