<?xml version="1.0" encoding="UTF-8"?>
<svg version="1.1" xmlns="http://www.w3.org/2000/svg" width="500" height="500">
<path d="M0 0 C165 0 330 0 500 0 C500 165 500 330 500 500 C335 500 170 500 0 500 C0 335 0 170 0 0 Z " fill="#272727" transform="translate(0,0)"/>
<path d="M0 0 C17.20735786 13.41471572 17.20735786 13.41471572 19.875 18.75 C49.905 19.08 79.935 19.41 110.875 19.75 C108.94223226 23.61553549 106.7410126 26.24037909 103.8125 29.3125 C100.20451001 33.16569892 96.73907064 37.06356011 93.4375 41.1875 C89.59454521 45.96541338 85.50668671 50.43994984 81.31884766 54.91162109 C77.40163542 59.11816578 73.76633045 63.50117026 70.16796875 67.984375 C66.74862829 72.10855396 63.10735736 76.00976909 59.453125 79.92578125 C58.60234375 80.85777344 57.7515625 81.78976563 56.875 82.75 C56.41375732 83.23847412 55.95251465 83.72694824 55.47729492 84.23022461 C51.26625631 88.90064925 50.606546 92.21970884 50.80859375 98.37890625 C52.40554964 107.41414672 59.04705214 115.49251262 64.02734375 122.96923828 C66.21835683 126.26675929 68.33711907 129.60476505 70.43603516 132.96142578 C71.29234146 134.33068852 72.15625703 135.69523097 73.02880859 137.05419922 C75.875 141.52816577 75.875 141.52816577 75.875 143.75 C71.585 143.75 67.295 143.75 62.875 143.75 C62.875 145.4 62.875 147.05 62.875 148.75 C60.56033257 146.59046094 58.9107673 144.40683819 57.265625 141.70703125 C56.51526978 140.48415405 56.51526978 140.48415405 55.74975586 139.23657227 C55.21358643 138.35412842 54.67741699 137.47168457 54.125 136.5625 C52.96539066 134.67153951 51.80521064 132.78092888 50.64453125 130.890625 C50.03432129 129.89482422 49.42411133 128.89902344 48.79541016 127.87304688 C45.4935579 122.50344427 42.15340263 117.15786203 38.8125 111.8125 C37.86648926 110.29523315 37.86648926 110.29523315 36.90136719 108.74731445 C33.95749677 104.03513805 30.99472153 99.34789383 27.875 94.75 C31.84712231 85.8843868 39.84691537 78.61965361 46.43115234 71.58813477 C50.33024941 67.40239401 53.94163362 63.03844439 57.51953125 58.57421875 C60.71111575 54.74749306 64.09903302 51.11946541 67.5390625 47.515625 C70.24213041 44.65139857 72.70703199 41.71178595 75.0559082 38.54760742 C75.58666458 37.83432785 76.11742096 37.12104828 76.66426086 36.38615417 C77.06380478 35.8462233 77.46334869 35.30629242 77.875 34.75 C70.06396962 34.63908901 62.25538421 34.60676346 54.44360352 34.62792969 C51.78747755 34.63157099 49.13610893 34.60637544 46.47973633 34.56835938 C42.65295174 34.51671392 38.83086575 34.52965678 35.00390625 34.5546875 C33.82542618 34.52494843 32.64694611 34.49520935 31.43275452 34.46456909 C26.3941652 34.55120201 23.15003714 34.72053248 19.14605713 37.95335388 C16.87424913 40.45877855 14.84761159 43.00563695 12.875 45.75 C12.06289063 46.71550781 11.25078125 47.68101562 10.4140625 48.67578125 C9.78242188 49.46339844 9.15078125 50.25101562 8.5 51.0625 C5.17481938 55.1697353 1.79837367 59.22483827 -1.625 63.25 C-4.99796937 67.21891888 -8.33676978 71.21017431 -11.625 75.25 C-15.07659013 79.48178682 -18.55346541 83.69079775 -22.0625 87.875 C-22.77212891 88.72868164 -22.77212891 88.72868164 -23.49609375 89.59960938 C-26.89382102 93.63441051 -26.89382102 93.63441051 -29.125 94.75 C-29.125 74.95 -29.125 55.15 -29.125 34.75 C-44.305 34.75 -59.485 34.75 -75.125 34.75 C-75.125 81.94 -75.125 129.13 -75.125 177.75 C-59.945 177.75 -44.765 177.75 -29.125 177.75 C-29.47968041 167.5768811 -29.47968041 167.5768811 -29.93579102 157.40820312 C-30.11519067 147.19721217 -30.11519067 147.19721217 -27.34082031 143.14233398 C-25.04529543 141.08492698 -22.71471908 139.41690405 -20.125 137.75 C-18.83489102 136.71332492 -17.55522125 135.66345099 -16.2890625 134.59765625 C-15.11169759 133.66632712 -13.93205329 132.73787134 -12.75 131.8125 C-12.14800781 131.33232422 -11.54601562 130.85214844 -10.92578125 130.35742188 C-8.34052138 128.32532737 -6.26947606 126.79815869 -3.125 125.75 C-2.76374023 126.39735107 -2.40248047 127.04470215 -2.03027344 127.71166992 C4.45783264 139.33226546 10.95837017 150.94484306 17.5625 162.5 C18.30064941 163.79200317 18.30064941 163.79200317 19.05371094 165.11010742 C20.95719572 168.43418466 20.95719572 168.43418466 22.875 171.75 C23.25411026 172.6079567 23.63322052 173.46591339 24.02381897 174.34986877 C25.69406167 177.06595506 25.69406167 177.06595506 28.92205811 177.32194519 C30.1733551 177.29844498 31.4246521 177.27494476 32.71386719 177.25073242 C33.4053183 177.2451532 34.09676941 177.23957397 34.80917358 177.23382568 C36.31037005 177.21926297 37.81149039 177.19360531 39.31233978 177.15819359 C41.69258088 177.10500607 44.07068014 177.08709752 46.45147705 177.079422 C53.21852442 177.05235994 59.98411503 176.97059047 66.75 176.84301758 C70.89062971 176.76741966 75.0292883 176.7407911 79.17057037 176.74373817 C80.74476089 176.7349478 82.3189672 176.70738142 83.89247894 176.66032982 C96.16613102 176.29831426 96.16613102 176.29831426 100.36975098 179.86929321 C103.32600653 183.96274173 104.99724719 188.05561798 106.875 192.75 C77.175 192.75 47.475 192.75 16.875 192.75 C16.545 191.43 16.215 190.11 15.875 188.75 C15.47152344 189.12769531 15.06804687 189.50539063 14.65234375 189.89453125 C-13.82775325 215.71406717 -47.21178966 226.50542573 -85.40283203 225.01318359 C-93.94465082 224.40921661 -102.01426369 222.42113333 -110.125 219.75 C-111.33800781 219.35425781 -112.55101562 218.95851563 -113.80078125 218.55078125 C-116.97973686 217.40483438 -120.04361469 216.13582922 -123.125 214.75 C-124.2490625 214.24855469 -125.373125 213.74710938 -126.53125 213.23046875 C-140.97804886 206.40659362 -152.77859818 196.89067905 -164.125 185.75 C-164.83269531 185.09 -165.54039062 184.43 -166.26953125 183.75 C-169.4432198 180.53914882 -170.45210544 178.21879973 -170.5 173.8125 C-170.40487996 172.45590701 -170.29028674 171.09984171 -170.125 169.75 C-164.96742251 171.41026339 -160.0164347 173.425173 -155.02734375 175.53125 C-144.95364722 179.06240881 -133.98523858 179.11404131 -123.4375 179.125 C-122.21611328 179.14949219 -120.99472656 179.17398438 -119.73632812 179.19921875 C-108.94759855 179.2329511 -101.23337371 177.21852749 -90.125 174.75 C-90.125 156.6 -90.125 138.45 -90.125 119.75 C-92.435 119.75 -94.745 119.75 -97.125 119.75 C-97.2178125 121.668125 -97.2178125 121.668125 -97.3125 123.625 C-98.05219915 129.96242247 -100.13654611 136.06853613 -104.98828125 140.421875 C-113.3505839 145.9426185 -122.31118954 146.66791992 -132.125 145.75 C-138.4095698 143.93902584 -143.09942392 140.07240382 -146.50390625 134.48828125 C-151.63922716 124.93453608 -151.329965 115.58264895 -151.375 104.9375 C-151.395625 103.73029297 -151.41625 102.52308594 -151.4375 101.27929688 C-151.48595637 90.07981802 -150.2231881 80.0437965 -142.125 71.75 C-134.78936037 65.65468591 -126.26657767 66.07154791 -117.19580078 66.52783203 C-112.87780496 66.99109261 -110.12162003 68.72295743 -107.125 71.75 C-106.55523437 72.30429688 -105.98546875 72.85859375 -105.3984375 73.4296875 C-100.93711942 78.18701721 -99.04611479 82.56517058 -99 89.125 C-99.04125 90.32125 -99.0825 91.5175 -99.125 92.75 C-96.155 92.75 -93.185 92.75 -90.125 92.75 C-90.125 74.6 -90.125 56.45 -90.125 37.75 C-115.0421985 30.95440041 -143.99054804 28.93754834 -167.4375 42 C-179.25606707 49.41803678 -187.1671834 58.62636782 -192.125 71.75 C-193.14381955 68.61933426 -193.11416158 66.85335143 -192.0078125 63.765625 C-191.73533691 63.0032251 -191.46286133 62.2408252 -191.18212891 61.45532227 C-190.87452637 60.64506592 -190.56692383 59.83480957 -190.25 59 C-189.93337402 58.15816162 -189.61674805 57.31632324 -189.29052734 56.44897461 C-184.01845147 42.90149954 -176.48979672 29.11479672 -166.125 18.75 C-164.15380859 18.52294922 -164.15380859 18.52294922 -161.7734375 18.5546875 C-160.92265625 18.56113281 -160.071875 18.56757813 -159.1953125 18.57421875 C-158.30585938 18.59097656 -157.41640625 18.60773438 -156.5 18.625 C-155.15421875 18.63853516 -155.15421875 18.63853516 -153.78125 18.65234375 C-151.56223414 18.6759503 -149.34374923 18.7088769 -147.125 18.75 C-147.125 17.1 -147.125 15.45 -147.125 13.75 C-151.415 13.75 -155.705 13.75 -160.125 13.75 C-147.23169722 -2.53627719 -127.65056665 -12.4736089 -108.125 -18.4375 C-107.30620361 -18.68781982 -106.48740723 -18.93813965 -105.64379883 -19.19604492 C-69.86629713 -29.71130906 -30.07349 -21.7787104 0 0 Z " fill="#FCFCFC" transform="translate(315.125,141.25)"/>
<path d="M0 0 C0.66 0.33 1.32 0.66 2 1 C1.33501617 5.38889325 -0.18757677 8.9811485 -2 13 C-3.18771723 9.57056481 -2.80226223 7.62215325 -1.5625 4.25 C-1.27503906 3.45078125 -0.98757812 2.6515625 -0.69140625 1.828125 C-0.46324219 1.22484375 -0.23507813 0.6215625 0 0 Z " fill="#D2D2D2" transform="translate(125,200)"/>
</svg>
